# xmcd
#
# Track frame offsets:
# 183
# 17778
# 34550
# 50580
# 67940
# 86423
# 102493
# 117673
# 134185
# 148983
# 162210
# 173350
# 188335
#
# Disc length: 2718 seconds
#
#
# Revision: 0
# Processed by: cddbd v1.5.1PL2 Copyright (c) Steve Scherf et al.
# Submitted via: FreeRIP 2.945 
#
DISCID=b00a9c0d
DTITLE=Cezar e Paulinho - 
DYEAR=1900
DGENRE=
TTITLE0=Da água pro vinho
TTITLE1=Não era pra acontecer
TTITLE2=Te amo, te adoro, te odeio
TTITLE3=Dona do meu mundo
TTITLE4=Obrigado ao homem do campo
TTITLE5=Sem você não tem jeito
TTITLE6=Vira e mexe
TTITLE7=Eu quero seu amor de volta
TTITLE8=Você foi feita pra mim
TTITLE9=Canção de amor
TTITLE10=Seu coração não tem dó do meu
TTITLE11=Náufrago
TTITLE12=Você vai voltar pra mim
EXTD=
EXTT0=
EXTT1=
EXTT2=
EXTT3=
EXTT4=
EXTT5=
EXTT6=
EXTT7=
EXTT8=
EXTT9=
EXTT10=
EXTT11=
EXTT12=
PLAYORDER=
